<svg xmlns="http://www.w3.org/2000/svg" width="25.5" height="32.25" viewBox="0 0 25.5 32.25">
  <g id="Grupo_46" data-name="Grupo 46" transform="translate(1.5 1.5)">
    <path id="Trazado_310" data-name="Trazado 310" d="M17.875,1.5H21.25A2.25,2.25,0,0,1,23.5,3.75v22.5a2.25,2.25,0,0,1-2.25,2.25h-18A2.25,2.25,0,0,1,1,26.25V3.75A2.25,2.25,0,0,1,3.25,1.5H6.625" transform="translate(-1 0.75)" fill="none" stroke="#fff" stroke-linecap="round" stroke-linejoin="round" stroke-width="3"/>
    <path id="Trazado_311" data-name="Trazado 311" d="M12.5.5H5.75A2.25,2.25,0,0,0,3.5,2.75V3.875a2.25,2.25,0,0,0,2.25,2.25H12.5a2.25,2.25,0,0,0,2.25-2.25V2.75A2.25,2.25,0,0,0,12.5.5Z" transform="translate(2.125 -0.5)" fill="none" stroke="#fff" stroke-linecap="round" stroke-linejoin="round" stroke-width="3"/>
    <path id="Trazado_312" data-name="Trazado 312" d="M3.5,5.5H9.125" transform="translate(2.125 5.75)" fill="none" stroke="#da031b" stroke-linecap="round" stroke-linejoin="round" stroke-width="3"/>
    <path id="Trazado_313" data-name="Trazado 313" d="M3.5,8H14.75" transform="translate(2.125 8.875)" fill="none" stroke="#fff" stroke-linecap="round" stroke-linejoin="round" stroke-width="3"/>
    <path id="Trazado_314" data-name="Trazado 314" d="M3.5,10.5H14.75" transform="translate(2.125 12)" fill="none" stroke="#fff" stroke-linecap="round" stroke-linejoin="round" stroke-width="3"/>
  </g>
</svg>
