<svg xmlns="http://www.w3.org/2000/svg" width="17.869" height="17.869" viewBox="0 0 17.869 17.869">
  <g id="Grupo_50" data-name="Grupo 50" transform="translate(-0.25 0.25)">
    <path id="Trazado_504" data-name="Trazado 504" d="M16.11.5H2.259A1.259,1.259,0,0,0,1,1.759v10.7a1.259,1.259,0,0,0,1.259,1.259H4.777v3.148l3.928-3.148h7.4a1.259,1.259,0,0,0,1.259-1.259V1.759A1.259,1.259,0,0,0,16.11.5Z" fill="none" stroke="#ffffff" stroke-linecap="round" stroke-linejoin="round" stroke-width="1.5"/>
    <path id="Trazado_505" data-name="Trazado 505" d="M6,4.889A1.889,1.889,0,1,1,7.889,6.777v.63" transform="translate(1.296 0.648)" fill="none" stroke="#ffffff" stroke-linecap="round" stroke-linejoin="round" stroke-width="1.5"/>
    <path id="Trazado_506" data-name="Trazado 506" d="M7.694,8a.944.944,0,1,0,.944.944A.957.957,0,0,0,7.694,8Z" transform="translate(1.49 1.943)" fill="#da031b"/>
  </g>
</svg>
