<svg xmlns="http://www.w3.org/2000/svg" width="34.233" height="34.233" viewBox="0 0 34.233 34.233">
  <g id="Grupo_47" data-name="Grupo 47" transform="translate(1.5 1.5)">
    <path id="Trazado_380" data-name="Trazado 380" d="M1.7,10.11a1.2,1.2,0,0,1-1.2-1.2V1.7A1.2,1.2,0,0,1,1.7.5h28.83a1.2,1.2,0,0,1,1.2,1.2V8.909a1.2,1.2,0,0,1-1.2,1.2" transform="translate(-0.5 -0.5)" fill="none" stroke="#fff" stroke-linecap="round" stroke-linejoin="round" stroke-width="3"/>
    <path id="Trazado_381" data-name="Trazado 381" d="M19.116,3H4.7A1.2,1.2,0,0,0,3.5,4.2V21.019a1.2,1.2,0,0,0,1.2,1.2H19.116a1.2,1.2,0,0,0,1.2-1.2V4.2A1.2,1.2,0,0,0,19.116,3Z" transform="translate(3.708 3.006)" fill="none" stroke="#fff" stroke-linecap="round" stroke-linejoin="round" stroke-width="3"/>
    <path id="Trazado_382" data-name="Trazado 382" d="M9.1,12.708A3.6,3.6,0,1,0,5.5,9.1,3.6,3.6,0,0,0,9.1,12.708Z" transform="translate(6.513 6.513)" fill="none" stroke="#da031b" stroke-linecap="round" stroke-linejoin="round" stroke-width="3"/>
    <path id="Trazado_383" data-name="Trazado 383" d="M3.5,13.5H20.318" transform="translate(3.708 17.733)" fill="none" stroke="#fff" stroke-linecap="round" stroke-linejoin="round" stroke-width="3"/>
  </g>
</svg>
