<svg xmlns="http://www.w3.org/2000/svg" width="30.141" height="30.141" viewBox="0 0 30.141 30.141">
  <g id="Grupo_44" data-name="Grupo 44" transform="translate(1.5 1.5)">
    <path id="Trazado_34" data-name="Trazado 34" d="M17.2.5H2.588A2.088,2.088,0,0,0,.5,2.588V25.554a2.088,2.088,0,0,0,2.088,2.088H25.554a2.088,2.088,0,0,0,2.088-2.088V10.939Z" transform="translate(-0.5 -0.5)" fill="none" stroke="#fff" stroke-linecap="round" stroke-linejoin="round" stroke-width="3"/>
    <path id="Trazado_35" data-name="Trazado 35" d="M8.5,9.9V.5L18.939,10.939h-9.4A1.044,1.044,0,0,1,8.5,9.9Z" transform="translate(8.202 -0.5)" fill="none" stroke="#fff" stroke-linecap="round" stroke-linejoin="round" stroke-width="3"/>
    <path id="Trazado_36" data-name="Trazado 36" d="M4.5,6.132V3" transform="translate(3.851 2.219)" fill="none" stroke="#fff" stroke-linecap="round" stroke-linejoin="round" stroke-width="3"/>
    <path id="Trazado_37" data-name="Trazado 37" d="M3,12.851c0,1.566,1.4,2.088,3.132,2.088s3.132,0,3.132-2.088C9.263,9.719,3,9.719,3,6.588,3,4.5,4.4,4.5,6.132,4.5s3.132.793,3.132,2.088" transform="translate(2.219 3.851)" fill="none" stroke="#fff" stroke-linecap="round" stroke-linejoin="round" stroke-width="3"/>
    <path id="Trazado_38" data-name="Trazado 38" d="M4.5,9.5v3.132" transform="translate(3.851 9.29)" fill="none" stroke="#fff" stroke-linecap="round" stroke-linejoin="round" stroke-width="3"/>
    <path id="Trazado_39" data-name="Trazado 39" d="M8.5,9.5h6.263" transform="translate(8.202 9.29)" fill="none" stroke="#da031b" stroke-linecap="round" stroke-linejoin="round" stroke-width="3"/>
  </g>
</svg>
