<svg xmlns="http://www.w3.org/2000/svg" width="42.629" height="38.462" viewBox="0 0 42.629 38.462">
  <g id="Grupo_306" data-name="Grupo 306" transform="translate(1.508 1.996)">
    <path id="Trazado_1161" data-name="Trazado 1161" d="M4.7,16.582,6.6,6.362a2.366,2.366,0,0,1,1.485-1.8h0a2.409,2.409,0,0,1,3.2,1.307l2.315,5.876,8.865-3.492a2.5,2.5,0,0,1,3.271,1.791L28.218,21.1a2.475,2.475,0,0,1-1.487,2.918L13.484,29.239a4.343,4.343,0,0,1-1.985.292l-1.74-.154" transform="translate(0.778 3.672)" fill="none" stroke="#fff" stroke-linecap="round" stroke-linejoin="round" stroke-width="3"/>
    <path id="Trazado_1162" data-name="Trazado 1162" d="M4.7,9.993,9.715,22.735" transform="translate(0.778 10.261)" fill="none" stroke="#003696" stroke-linecap="round" stroke-linejoin="round" stroke-width="3"/>
    <path id="Trazado_1163" data-name="Trazado 1163" d="M2.861,11.878,7.647,9.993l5.019,12.742L7.881,24.621a1.085,1.085,0,0,1-1.407-.612L2.25,13.286a1.085,1.085,0,0,1,.612-1.407Z" transform="translate(-2.174 10.261)" fill="none" stroke="#fff" stroke-linecap="round" stroke-linejoin="round" stroke-width="3"/>
    <path id="Trazado_1164" data-name="Trazado 1164" d="M11.538.661,13.849,5.57" transform="translate(8.785 -0.661)" fill="none" stroke="#fff" stroke-linecap="round" stroke-linejoin="round" stroke-width="3"/>
    <path id="Trazado_1165" data-name="Trazado 1165" d="M18.232.793l-2.051,5.02" transform="translate(14.221 -0.506)" fill="none" stroke="#fff" stroke-linecap="round" stroke-linejoin="round" stroke-width="3"/>
    <path id="Trazado_1166" data-name="Trazado 1166" d="M23.385,5.344l-5.584.47" transform="translate(16.116 4.819)" fill="none" stroke="#da031b" stroke-linecap="round" stroke-linejoin="round" stroke-width="3"/>
  </g>
</svg>
