<svg data-name="Grupo 472" xmlns="http://www.w3.org/2000/svg" id="EsstudiaPartner" width="135" height="34.707"><defs><clipPath id="a"><path data-name="Rectángulo 311" fill="#464646" d="M0 0h135v34.707H0z"/></clipPath></defs><g data-name="Grupo 267" clip-path="url(#a)" fill="#464646"><path data-name="Trazado 1123" d="M134.955 11.717 127.117.114a.244.244 0 0 0-.206-.114.247.247 0 0 0-.211.114l-7.757 11.53a.271.271 0 0 0-.04.142v5.73a.249.249 0 0 0 .249.249h1.8a.248.248 0 0 0 .25-.249v-5.1l3.647-5.441h4.158l3.689 5.514v5.032a.252.252 0 0 0 .254.249h1.8a.251.251 0 0 0 .253-.249v-5.66a.257.257 0 0 0-.045-.144"/><path data-name="Trazado 1124" d="M127.85 12.465h-1.8a.251.251 0 0 0-.25.253v4.8a.25.25 0 0 0 .25.25h1.8a.25.25 0 0 0 .25-.25v-4.8a.25.25 0 0 0-.25-.253"/><path data-name="Trazado 1125" d="M11.047 17.721H.311A.314.314 0 0 1 0 17.405V2.166a.312.312 0 0 1 .311-.313h10.63a.313.313 0 0 1 .313.313v1.567a.314.314 0 0 1-.313.316H2.285v4.573H10a.316.316 0 0 1 .314.316v1.565a.313.313 0 0 1-.314.315H2.285v4.708h8.762a.314.314 0 0 1 .313.315v1.565a.316.316 0 0 1-.313.316"/><path data-name="Trazado 1126" d="M23.42 17.942a8.719 8.719 0 0 1-6.223-2.52.316.316 0 0 1-.031-.43l1.032-1.262a.309.309 0 0 1 .457-.032 6.537 6.537 0 0 0 4.826 2.068c1.774 0 2.965-.914 2.965-2.275v-.041c0-1.2-.553-1.931-3.577-2.591-3.112-.7-5.183-1.77-5.183-4.7v-.04c0-2.594 2.164-4.474 5.146-4.474a7.78 7.78 0 0 1 5.369 1.943.318.318 0 0 1 .053.429l-.967 1.327a.32.32 0 0 1-.216.128.337.337 0 0 1-.24-.073A6.009 6.009 0 0 0 22.79 3.82c-1.659 0-2.817.88-2.817 2.146v.041c0 1.212.58 1.953 3.745 2.656 3.532.8 5.038 2.177 5.038 4.618v.041c0 2.722-2.194 4.625-5.335 4.625"/><path data-name="Trazado 1127" d="M40.642 17.942a8.714 8.714 0 0 1-6.219-2.52.314.314 0 0 1-.031-.43l1.029-1.262a.311.311 0 0 1 .223-.117.307.307 0 0 1 .236.085 6.533 6.533 0 0 0 4.826 2.068c1.772 0 2.963-.914 2.963-2.275v-.041c0-1.2-.551-1.931-3.572-2.591-3.116-.7-5.185-1.77-5.185-4.7v-.04c0-2.594 2.16-4.474 5.145-4.474a7.779 7.779 0 0 1 5.369 1.943.317.317 0 0 1 .052.429l-.966 1.327a.321.321 0 0 1-.217.128.333.333 0 0 1-.238-.073 6.013 6.013 0 0 0-4.043-1.579c-1.658 0-2.816.88-2.816 2.146v.041c0 1.212.581 1.953 3.747 2.656 3.529.8 5.033 2.177 5.033 4.618v.041c0 2.722-2.191 4.625-5.334 4.625"/><path data-name="Trazado 1128" d="M58.288 17.721h-1.676a.316.316 0 0 1-.314-.316V4.072h-4.626a.317.317 0 0 1-.317-.313V2.166a.315.315 0 0 1 .317-.313h11.553a.313.313 0 0 1 .313.313v1.592a.314.314 0 0 1-.313.313h-4.622v13.334a.316.316 0 0 1-.315.316"/><path data-name="Trazado 1129" d="M76.208 17.959c-3.965 0-6.429-2.654-6.429-6.931V2.167a.314.314 0 0 1 .312-.314h1.662a.316.316 0 0 1 .315.314v8.751c0 3.068 1.523 4.826 4.18 4.826s4.12-1.676 4.12-4.716V2.167a.314.314 0 0 1 .314-.314h1.659a.316.316 0 0 1 .314.314v8.73c0 4.422-2.411 7.062-6.447 7.062"/><path data-name="Trazado 1130" d="M94.859 17.721h-5.107a.319.319 0 0 1-.316-.315V2.166a.317.317 0 0 1 .316-.313h5.106a7.75 7.75 0 0 1 8.128 7.891v.047a7.771 7.771 0 0 1-8.128 7.934m-3.132-2.218h3.132a5.477 5.477 0 0 0 5.775-5.673v-.043a5.5 5.5 0 0 0-5.775-5.715h-3.132Z"/><path data-name="Trazado 1131" d="M111.46 17.721h-1.663a.315.315 0 0 1-.312-.316V2.166a.312.312 0 0 1 .312-.313h1.663a.313.313 0 0 1 .311.313v15.239a.315.315 0 0 1-.311.316"/><path data-name="Trazado 1132" d="M14.364 31.933v-.01a.966.966 0 1 1 1.932 0v.015a.966.966 0 1 1-1.932 0"/><path data-name="Trazado 1133" d="M24.227 31.956v-.015a2.671 2.671 0 0 1 4.623-1.918l-.4.443a2.209 2.209 0 0 0-1.622-.734 2.066 2.066 0 0 0-2 2.193v.015a2.079 2.079 0 0 0 2 2.208 2.206 2.206 0 0 0 1.666-.772l.384.39a2.637 2.637 0 0 1-4.652-1.811"/><path data-name="Trazado 1134" d="M31.732 31.956v-.015a2.635 2.635 0 1 1 5.264-.015v.015a2.635 2.635 0 1 1-5.264.015m4.66 0v-.015a2.094 2.094 0 0 0-2.035-2.208 2.069 2.069 0 0 0-2.02 2.193v.015a2.094 2.094 0 0 0 2.036 2.208 2.069 2.069 0 0 0 2.02-2.193"/><path data-name="Trazado 1135" d="M40.438 29.267h.59l1.88 2.918 1.88-2.918h.59v5.348h-.582v-4.332l-1.881 2.865h-.029l-1.88-2.857v4.324h-.568Z"/><path data-name="Trazado 1136" d="M48.82 31.956v-.015a2.635 2.635 0 1 1 5.264-.015v.015a2.635 2.635 0 1 1-5.264.015m4.66 0v-.015a2.094 2.094 0 0 0-2.035-2.208 2.069 2.069 0 0 0-2.02 2.193v.015a2.094 2.094 0 0 0 2.035 2.208 2.069 2.069 0 0 0 2.02-2.193"/><path data-name="Trazado 1137" d="M61.949 29.267h3.731v.55h-3.148v1.826h2.816v.55h-2.816v1.872h3.185v.55h-3.768Z"/><path data-name="Trazado 1138" d="M69.099 29.267h.546l3.251 4.286v-4.286h.568v5.348H73l-3.333-4.385v4.385h-.568Z"/><path data-name="Trazado 1139" d="M81.329 31.956v-.015a2.671 2.671 0 0 1 4.623-1.918l-.4.443a2.209 2.209 0 0 0-1.622-.734 2.066 2.066 0 0 0-2 2.193v.015a2.079 2.079 0 0 0 2 2.208 2.206 2.206 0 0 0 1.666-.772l.384.39a2.637 2.637 0 0 1-4.653-1.811"/><path data-name="Trazado 1140" d="M91.119 29.233h.546l2.352 5.387h-.627l-.6-1.413h-2.809l-.612 1.413h-.6Zm1.438 3.43-1.172-2.728-1.18 2.728Z"/><path data-name="Trazado 1141" d="m96.795 33.836.361-.443a2.416 2.416 0 0 0 1.77.756c.693 0 1.15-.382 1.15-.909v-.01c0-.5-.258-.779-1.342-1.016-1.187-.267-1.733-.665-1.733-1.543v-.015a1.543 1.543 0 0 1 1.7-1.459 2.635 2.635 0 0 1 1.814.657l-.339.466a2.221 2.221 0 0 0-1.489-.581c-.671 0-1.1.382-1.1.863v.015c0 .5.265.787 1.4 1.039s1.681.7 1.681 1.513v.016a1.571 1.571 0 0 1-1.762 1.513 2.963 2.963 0 0 1-2.109-.856"/><path data-name="Trazado 1142" d="M105.863 29.233h.546l2.352 5.387h-.627l-.6-1.413h-2.809l-.612 1.413h-.6Zm1.438 3.43-1.172-2.728-1.18 2.728Z"/><path data-name="Trazado 1143" d="M116.485 31.933v-.01a.966.966 0 1 1 1.932 0v.015a.966.966 0 1 1-1.932 0"/></g></svg>